# xmcd
#
# Track frame offsets:
#	150
#	15283
#	30501
#	40701
#	60707
#	75334
#	90119
#	103022
#	114522
#	132353
#	148932
#	165602
#	182805
#
# Disc length: 2532 seconds
#
# Revision: 0
# Processed by: cddbd v1.4PL0 Copyright (c) Steve Scherf et al.
# Submitted via: dBpowerAMP V4.0
#
DISCID=9709e20d
DTITLE=Booglerizers - Extra Crispy
DYEAR=1900
DGENRE=Bluegrass
TTITLE0=Lumpy Man Blues
TTITLE1=Fool To Love You
TTITLE2=March For Blanche
TTITLE3=Tender Brown
TTITLE4=Womanizer Blues
TTITLE5=I Want To Make You
TTITLE6=Die That Way
TTITLE7=Something's Wrong
TTITLE8=Pork Store
TTITLE9=Your Tears
TTITLE10=Swellicious
TTITLE11=The Funkymojerkulation
TTITLE12=Your Sauce
EXTD=
EXTT0=
EXTT1=
EXTT2=
EXTT3=
EXTT4=
EXTT5=
EXTT6=
EXTT7=
EXTT8=
EXTT9=
EXTT10=
EXTT11=
EXTT12=
PLAYORDER=
